<svg xmlns="http://www.w3.org/2000/svg" viewBox="0 0 1000 320">

<g transform="translate(50.38 -317.52) scale(0.835422)"><path d="M172.453 582.441C170.681 580.427 169.795 577.85 169.795 574.709C174.144 574.709 177.487 574.186 179.822 573.139C182.238 572.092 183.446 570.441 183.446 568.185V507.66H180.789C178.695 507.66 176.601 508.305 174.507 509.593C172.493 510.882 170.721 513.258 169.191 516.721C167.741 520.104 166.735 525.057 166.171 531.58C165.204 531.5 163.996 531.419 162.547 531.339C161.097 531.258 159.687 531.137 158.318 530.976C157.03 530.735 156.023 530.493 155.298 530.252C155.298 528.56 155.379 526.184 155.54 523.124C155.701 520.063 155.942 516.802 156.264 513.338C156.587 509.875 156.989 506.654 157.473 503.674C158.036 500.613 158.681 498.278 159.406 496.667C160.855 496.667 162.506 496.788 164.359 497.029C166.211 497.271 167.862 497.633 169.312 498.116H216.427C217.957 497.633 219.608 497.271 221.38 497.029C223.152 496.788 224.803 496.667 226.334 496.667C227.058 498.278 227.662 500.613 228.146 503.674C228.709 506.654 229.152 509.875 229.475 513.338C229.797 516.802 230.038 520.063 230.199 523.124C230.36 526.184 230.441 528.56 230.441 530.252C229.394 530.654 227.703 530.976 225.367 531.218C223.112 531.46 221.179 531.58 219.568 531.58C219.085 525.057 218.28 520.104 217.152 516.721C216.025 513.258 214.535 510.882 212.682 509.593C210.83 508.305 208.454 507.66 205.554 507.66H203.501V568.185C203.501 572.535 207.769 574.709 216.306 574.709C216.306 577.85 215.38 580.427 213.528 582.441H172.453ZM288.513 583.166C284.567 583.166 281.547 582.562 279.453 581.354C277.359 580.146 276.311 578.213 276.311 575.555V536.654C276.311 534.077 275.587 532.104 274.137 530.735C272.687 529.285 270.795 528.56 268.459 528.56C266.929 528.56 265.278 529.084 263.506 530.131C261.814 531.097 260.526 532.426 259.64 534.117V569.394C259.64 571.729 260.123 573.421 261.09 574.468C262.137 575.434 263.868 575.917 266.284 575.917C266.284 578.414 265.358 580.588 263.506 582.441H236.807C234.955 580.588 234.028 578.414 234.028 575.917C236.445 575.917 238.136 575.434 239.102 574.468C240.149 573.421 240.673 571.729 240.673 569.394V503.915C240.673 502.063 240.149 500.613 239.102 499.566C238.055 498.519 235.881 497.996 232.579 497.996V493.042C234.592 491.995 236.928 491.029 239.586 490.143C242.324 489.257 245.022 488.573 247.68 488.089C250.418 487.526 252.673 487.244 254.445 487.244C256.298 487.244 257.626 487.687 258.432 488.573C259.237 489.378 259.64 490.787 259.64 492.801V516.6L259.398 526.265C261.492 523.607 264.19 521.352 267.492 519.5C270.795 517.647 274.54 516.721 278.728 516.721C290.164 516.721 295.883 522.681 295.883 534.601V568.427C295.883 572.535 297.815 574.951 301.681 575.676L301.802 579.179C298.903 581.837 294.473 583.166 288.513 583.166ZM336.674 583.528C327.654 583.528 320.446 580.669 315.05 574.951C309.734 569.232 307.076 561.259 307.076 551.031C307.076 544.024 308.405 537.983 311.063 532.909C313.721 527.755 317.305 523.808 321.815 521.07C326.406 518.332 331.6 516.963 337.399 516.963C344.648 516.963 350.446 519.097 354.796 523.365C359.225 527.553 361.44 533.473 361.44 541.124C361.44 544.185 360.917 546.883 359.87 549.219C358.903 551.474 356.849 552.601 353.708 552.601H327.614C327.855 558.964 329.305 563.474 331.963 566.132C334.701 568.79 338.245 570.118 342.594 570.118C345.332 570.118 347.869 569.716 350.205 568.91C352.541 568.024 354.715 566.816 356.729 565.286C357.453 565.93 358.017 566.937 358.42 568.306C358.903 569.595 359.145 570.682 359.145 571.568C359.145 572.857 358.219 574.468 356.366 576.4C354.594 578.253 352.017 579.904 348.634 581.354C345.332 582.803 341.346 583.528 336.674 583.528ZM327.614 543.42H339.815C341.184 543.42 342.03 542.896 342.352 541.849C342.755 540.802 342.956 539.514 342.956 537.983C342.956 532.829 342.312 529.446 341.023 527.835C339.815 526.144 338.366 525.298 336.674 525.298C335.305 525.298 333.936 525.822 332.567 526.869C331.198 527.916 330.07 529.768 329.184 532.426C328.298 535.003 327.775 538.668 327.614 543.42ZM425.144 583.407C421.359 583.407 416.969 583.246 411.976 582.924C406.982 582.602 400.781 582.441 393.371 582.441C391.599 580.266 390.714 577.729 390.714 574.83C393.452 574.83 395.385 574.387 396.512 573.501C397.64 572.535 398.204 570.924 398.204 568.669V511.889C398.204 509.634 397.64 508.063 396.512 507.177C395.385 506.211 393.452 505.727 390.714 505.727C390.714 502.828 391.599 500.291 393.371 498.116C399.09 498.116 403.64 498.076 407.023 497.996C410.405 497.835 413.264 497.714 415.6 497.633C418.016 497.553 420.432 497.512 422.849 497.512C429.856 497.512 435.614 498.157 440.124 499.445C444.634 500.653 448.138 502.264 450.635 504.278C453.212 506.211 454.984 508.385 455.95 510.801C456.997 513.137 457.521 515.473 457.521 517.808C457.521 522.318 456.353 526.184 454.017 529.406C451.682 532.627 447.735 535.406 442.178 537.742C449.104 539.191 454.138 541.446 457.279 544.507C460.501 547.567 462.111 552.319 462.111 558.762C462.111 561.903 461.588 564.964 460.541 567.944C459.494 570.843 457.601 573.461 454.863 575.796C452.205 578.132 448.46 579.984 443.628 581.354C438.795 582.723 432.634 583.407 425.144 583.407ZM421.761 534.842C427.641 534.842 431.788 533.554 434.205 530.976C436.701 528.399 437.95 524.936 437.95 520.587C437.95 516.238 436.742 512.775 434.325 510.197C431.99 507.62 428.245 506.331 423.09 506.331C422.285 506.331 421.399 506.372 420.432 506.452C419.547 506.533 418.781 506.654 418.137 506.815V534.601C418.701 534.681 419.305 534.762 419.949 534.842C420.594 534.842 421.198 534.842 421.761 534.842ZM423.211 574.588C434.487 574.588 440.124 569.716 440.124 559.97C440.124 554.494 438.715 550.386 435.896 547.648C433.158 544.91 428.567 543.54 422.124 543.54C421.479 543.54 420.755 543.581 419.949 543.661C419.224 543.661 418.62 543.661 418.137 543.661V574.226C418.701 574.306 419.426 574.387 420.312 574.468C421.198 574.548 422.164 574.588 423.211 574.588ZM470.298 582.441C469.412 581.555 468.728 580.588 468.244 579.541C467.761 578.494 467.52 577.286 467.52 575.917C469.855 575.917 471.506 575.434 472.473 574.468C473.52 573.421 474.043 571.689 474.043 569.273V534.359C474.043 532.265 473.479 530.775 472.352 529.889C471.224 528.923 469.13 528.439 466.07 528.439V523.003C468.003 521.875 470.298 520.909 472.956 520.104C475.614 519.218 478.231 518.533 480.808 518.05C483.386 517.486 485.399 517.204 486.849 517.204C488.701 517.204 490.03 517.849 490.836 519.137C491.722 520.426 492.164 523.204 492.164 527.473C493.05 525.782 494.339 524.131 496.03 522.52C497.802 520.828 499.775 519.459 501.95 518.412C504.125 517.365 506.38 516.842 508.715 516.842C512.501 516.842 515.199 517.808 516.809 519.741C518.42 521.674 519.226 524.171 519.226 527.231C519.226 530.695 518.34 533.513 516.568 535.688C514.796 537.862 512.34 538.95 509.199 538.95C506.46 538.95 504.286 538.185 502.675 536.654C501.064 535.044 500.259 533.231 500.259 531.218C500.259 529.929 500.379 528.923 500.621 528.198C499.332 528.52 498.084 528.963 496.876 529.527C495.668 530.01 494.46 530.815 493.252 531.943V568.185C493.252 570.038 493.534 571.528 494.097 572.655C494.661 573.783 495.748 574.629 497.359 575.192C499.051 575.676 501.547 575.917 504.849 575.917C504.849 577.286 504.688 578.494 504.366 579.541C504.044 580.588 503.44 581.555 502.554 582.441H470.298ZM549.741 583.528C540.721 583.528 533.513 580.669 528.116 574.951C522.801 569.232 520.143 561.259 520.143 551.031C520.143 544.024 521.472 537.983 524.13 532.909C526.788 527.755 530.372 523.808 534.882 521.07C539.472 518.332 544.667 516.963 550.466 516.963C557.715 516.963 563.513 519.097 567.862 523.365C572.292 527.553 574.507 533.473 574.507 541.124C574.507 544.185 573.983 546.883 572.936 549.219C571.97 551.474 569.916 552.601 566.775 552.601H540.681C540.922 558.964 542.372 563.474 545.03 566.132C547.768 568.79 551.312 570.118 555.661 570.118C558.399 570.118 560.936 569.716 563.272 568.91C565.607 568.024 567.782 566.816 569.795 565.286C570.52 565.93 571.084 566.937 571.487 568.306C571.97 569.595 572.212 570.682 572.212 571.568C572.212 572.857 571.285 574.468 569.433 576.4C567.661 578.253 565.084 579.904 561.701 581.354C558.399 582.803 554.412 583.528 549.741 583.528ZM540.681 543.42H552.882C554.251 543.42 555.097 542.896 555.419 541.849C555.822 540.802 556.023 539.514 556.023 537.983C556.023 532.829 555.379 529.446 554.09 527.835C552.882 526.144 551.432 525.298 549.741 525.298C548.372 525.298 547.003 525.822 545.634 526.869C544.265 527.916 543.137 529.768 542.251 532.426C541.365 535.003 540.842 538.668 540.681 543.42ZM599.762 583.287C593.721 583.287 588.808 581.635 585.023 578.333C581.318 574.951 579.466 570.642 579.466 565.407C579.466 560.172 581.157 555.944 584.54 552.722C588.003 549.5 593.318 547.89 600.486 547.89C602.822 547.89 605.279 548.131 607.856 548.614C610.433 549.017 612.527 549.661 614.138 550.547V534.48C614.138 531.097 613.252 528.762 611.48 527.473C609.789 526.104 607.695 525.419 605.198 525.419C602.54 525.419 600.366 526.064 598.674 527.352C600.285 527.916 601.453 528.802 602.178 530.01C602.903 531.137 603.265 532.386 603.265 533.755C603.265 536.413 602.299 538.547 600.366 540.158C598.513 541.688 596.218 542.453 593.48 542.453C590.419 542.453 587.963 541.567 586.11 539.795C584.258 537.943 583.332 535.648 583.332 532.909C583.332 530.171 584.258 527.594 586.11 525.178C587.963 522.681 590.822 520.627 594.688 519.016C598.634 517.406 603.708 516.6 609.91 516.6C626.098 516.6 634.192 523.003 634.192 535.809V567.823C634.192 571.689 636.044 574.025 639.749 574.83V578.696C638.702 580.226 636.93 581.394 634.434 582.199C631.937 582.924 629.521 583.287 627.185 583.287C621.709 583.287 617.843 581.394 615.588 577.609C613.977 579.058 611.842 580.387 609.185 581.595C606.527 582.723 603.386 583.287 599.762 583.287ZM607.614 573.501C608.742 573.501 609.91 573.34 611.118 573.018C612.326 572.615 613.332 572.132 614.138 571.568V559.85C613.332 559.286 612.285 558.803 610.997 558.4C609.789 557.997 608.581 557.796 607.373 557.796C605.279 557.796 603.466 558.481 601.936 559.85C600.406 561.138 599.641 563.192 599.641 566.011C599.641 568.185 600.366 569.998 601.815 571.447C603.265 572.816 605.198 573.501 607.614 573.501ZM701.254 583.649C696.824 583.649 693.281 582.723 690.623 580.87C687.965 578.937 685.791 576.521 684.099 573.622C682.488 570.722 681.039 567.783 679.75 564.803C678.462 561.742 677.092 558.964 675.643 556.467C674.193 553.97 672.3 552.279 669.965 551.393V569.877C669.965 572.212 670.448 573.904 671.414 574.951C672.461 575.917 674.233 576.4 676.73 576.4C676.73 577.689 676.448 578.857 675.884 579.904C675.401 580.951 674.716 581.917 673.831 582.803H647.253C645.32 581.112 644.353 578.978 644.353 576.4C646.769 576.4 648.461 575.917 649.427 574.951C650.474 573.904 650.998 572.212 650.998 569.877V504.398C650.998 502.546 650.474 501.096 649.427 500.049C648.38 498.922 646.206 498.358 642.904 498.358V493.526C644.917 492.479 647.253 491.512 649.91 490.626C652.649 489.74 655.347 489.016 658.005 488.452C660.662 487.888 662.837 487.606 664.528 487.606C666.461 487.606 667.83 488.049 668.636 488.935C669.522 489.74 669.965 491.19 669.965 493.284V547.044L683.254 533.272C683.737 532.789 684.22 532.225 684.703 531.58C685.267 530.856 685.549 530.211 685.549 529.647C685.549 528.52 684.663 527.473 682.891 526.506C681.2 525.54 679.549 525.057 677.938 525.057C677.938 522.157 678.864 519.701 680.717 517.687H707.899C708.865 518.654 709.469 519.781 709.711 521.07C710.033 522.359 710.194 523.688 710.194 525.057C708.019 525.057 706.368 525.419 705.241 526.144C704.194 526.788 703.227 527.513 702.341 528.319L683.978 546.44C686.958 546.923 689.455 547.89 691.469 549.339C693.482 550.789 695.375 553.084 697.147 556.225C699.643 560.655 701.576 564.159 702.945 566.736C704.395 569.232 705.724 571.125 706.932 572.414C708.221 573.702 709.912 574.709 712.006 575.434L712.127 578.333C711.885 580.025 710.758 581.354 708.744 582.32C706.731 583.206 704.234 583.649 701.254 583.649ZM719.008 582.441C717.156 580.588 716.23 578.414 716.23 575.917C718.646 575.917 720.337 575.394 721.304 574.347C722.351 573.3 722.874 571.608 722.874 569.273V529.285H715.505V521.795C717.277 521.392 718.686 520.909 719.733 520.345C720.78 519.781 721.747 519.177 722.633 518.533C722.31 516.681 722.069 514.989 721.908 513.459C721.747 511.929 721.666 510.157 721.666 508.144C721.666 499.767 723.881 493.526 728.311 489.418C732.74 485.23 738.74 483.136 746.311 483.136C750.177 483.136 753.358 483.942 755.855 485.552C758.352 487.083 760.204 488.975 761.412 491.23C762.62 493.485 763.224 495.62 763.224 497.633C763.224 500.613 762.419 503.11 760.808 505.123C759.278 507.137 757.184 508.144 754.526 508.144C752.11 508.144 749.976 507.298 748.123 505.607C746.271 503.835 745.345 501.821 745.345 499.566C745.345 498.6 745.546 497.512 745.949 496.304C746.351 495.016 747.358 493.767 748.969 492.559C748.727 492.157 748.284 491.834 747.64 491.593C747.076 491.271 746.553 491.11 746.069 491.11C744.781 491.11 743.573 491.754 742.445 493.042C741.318 494.251 740.391 495.861 739.667 497.875C739.022 499.888 738.7 502.023 738.7 504.278C738.7 506.694 738.901 508.989 739.304 511.164C739.787 513.338 740.351 515.11 740.995 516.479C741.64 517.768 742.204 518.412 742.687 518.412H754.284C754.284 520.184 754.164 522.117 753.922 524.211C753.68 526.225 753.117 527.916 752.231 529.285H741.962V568.185C741.962 569.957 742.244 571.447 742.808 572.655C743.371 573.783 744.499 574.629 746.19 575.192C747.882 575.676 750.378 575.917 753.68 575.917C753.68 578.414 752.754 580.588 750.902 582.441H719.008ZM777.435 583.287C771.395 583.287 766.482 581.635 762.697 578.333C758.992 574.951 757.139 570.642 757.139 565.407C757.139 560.172 758.831 555.944 762.213 552.722C765.677 549.5 770.992 547.89 778.16 547.89C780.496 547.89 782.952 548.131 785.529 548.614C788.107 549.017 790.201 549.661 791.812 550.547V534.48C791.812 531.097 790.926 528.762 789.154 527.473C787.462 526.104 785.368 525.419 782.872 525.419C780.214 525.419 778.039 526.064 776.348 527.352C777.959 527.916 779.127 528.802 779.851 530.01C780.576 531.137 780.939 532.386 780.939 533.755C780.939 536.413 779.972 538.547 778.039 540.158C776.187 541.688 773.892 542.453 771.153 542.453C768.093 542.453 765.636 541.567 763.784 539.795C761.931 537.943 761.005 535.648 761.005 532.909C761.005 530.171 761.931 527.594 763.784 525.178C765.636 522.681 768.495 520.627 772.361 519.016C776.308 517.406 781.382 516.6 787.583 516.6C803.772 516.6 811.866 523.003 811.866 535.809V567.823C811.866 571.689 813.718 574.025 817.423 574.83V578.696C816.376 580.226 814.604 581.394 812.107 582.199C809.611 582.924 807.194 583.287 804.859 583.287C799.382 583.287 795.516 581.394 793.261 577.609C791.65 579.058 789.516 580.387 786.858 581.595C784.201 582.723 781.06 583.287 777.435 583.287ZM785.288 573.501C786.415 573.501 787.583 573.34 788.791 573.018C789.999 572.615 791.006 572.132 791.812 571.568V559.85C791.006 559.286 789.959 558.803 788.67 558.4C787.462 557.997 786.254 557.796 785.046 557.796C782.952 557.796 781.14 558.481 779.61 559.85C778.08 561.138 777.314 563.192 777.314 566.011C777.314 568.185 778.039 569.998 779.489 571.447C780.939 572.816 782.872 573.501 785.288 573.501ZM847.512 583.649C844.612 583.649 841.673 583.327 838.693 582.683C835.793 582.038 833.095 581.112 830.599 579.904C828.182 578.696 826.209 577.206 824.679 575.434C823.149 573.582 822.384 571.488 822.384 569.152C822.384 566.333 823.189 564.078 824.8 562.387C826.411 560.615 828.464 559.729 830.961 559.729C833.216 559.729 835.109 560.454 836.639 561.903C838.25 563.353 839.055 565.246 839.055 567.581C839.055 568.628 838.894 569.555 838.572 570.36C838.25 571.085 837.767 571.89 837.122 572.776C837.847 573.501 839.136 574.025 840.988 574.347C842.841 574.669 844.653 574.83 846.425 574.83C849.243 574.83 851.418 574.306 852.948 573.259C854.478 572.212 855.244 570.924 855.244 569.394C855.244 566.977 853.955 564.924 851.378 563.232C848.8 561.46 845.861 559.689 842.559 557.917C839.579 556.306 836.599 554.615 833.619 552.843C830.719 550.99 828.263 548.695 826.25 545.957C824.317 543.218 823.35 539.755 823.35 535.567C823.35 530.252 825.565 525.862 829.995 522.399C834.424 518.936 840.706 517.204 848.841 517.204C854.478 517.204 858.989 517.929 862.371 519.379C865.754 520.748 868.21 522.52 869.741 524.694C871.271 526.788 872.036 529.003 872.036 531.339C872.036 533.836 871.231 535.849 869.62 537.379C868.09 538.829 866.197 539.554 863.942 539.554C861.928 539.554 860.156 538.95 858.626 537.742C857.096 536.453 856.331 534.802 856.331 532.789C856.331 531.822 856.492 530.775 856.814 529.647C857.136 528.52 857.579 527.594 858.143 526.869C857.257 526.144 856.21 525.661 855.002 525.419C853.874 525.097 852.505 524.936 850.894 524.936C848.237 524.936 846.183 525.58 844.733 526.869C843.364 528.077 842.679 529.567 842.679 531.339C842.679 534.077 843.968 536.332 846.545 538.104C849.203 539.876 852.143 541.608 855.364 543.299C858.344 544.829 861.244 546.48 864.063 548.252C866.962 550.024 869.378 552.239 871.311 554.897C873.244 557.554 874.211 560.977 874.211 565.165C874.211 569.675 872.922 573.3 870.345 576.038C867.767 578.696 864.425 580.629 860.318 581.837C856.291 583.045 852.022 583.649 847.512 583.649ZM904.486 583.287C901.104 583.287 898.003 582.683 895.184 581.474C892.365 580.186 890.07 578.011 888.298 574.951C886.607 571.89 885.761 567.702 885.761 562.387V529.164H878.15V521.795C880.325 521.473 882.378 520.104 884.311 517.687C886.244 515.271 887.895 512.291 889.265 508.748C890.714 505.204 891.64 501.66 892.043 498.116C893.493 497.875 894.822 497.754 896.03 497.754C899.251 497.754 901.466 498.68 902.674 500.533C903.963 502.385 904.607 504.117 904.607 505.727V518.412H918.621C918.621 520.345 918.5 522.278 918.259 524.211C918.098 526.064 917.574 527.715 916.688 529.164H904.849V563.232C904.849 565.81 905.372 567.541 906.419 568.427C907.466 569.232 908.795 569.635 910.406 569.635C912.017 569.635 913.628 569.232 915.238 568.427C916.93 567.541 918.259 566.534 919.225 565.407C920.111 566.132 920.715 567.219 921.037 568.669C921.359 570.038 921.52 571.085 921.52 571.81C921.52 573.582 920.916 575.353 919.708 577.125C918.5 578.897 916.608 580.387 914.03 581.595C911.534 582.723 908.352 583.287 904.486 583.287Z" fill="#8B6239"/></g>
<line x1="330" y1="205" x2="670" y2="205" stroke="#2364A1" stroke-width="3"/>
<text x="500" y="248" text-anchor="middle" font-family="Poppins" font-weight="600" font-size="30" letter-spacing="8" fill="#2364A1">CAFÉ &amp; KITCHEN</text>
</svg>